<svg height="471pt" viewBox="-64 0 471 471.896" width="471pt" xmlns="http://www.w3.org/2000/svg"><path d="m289.246094 368.800781 45.203125 45.199219c-72.9375 68.589844-187.339844 66.246094-257.40625-5.269531-70.070313-71.519531-70.070313-185.941407 0-257.460938 70.066406-71.515625 184.46875-73.859375 257.40625-5.269531l-45.203125 45.199219c-47.953125-43.625-121.882813-41.296875-166.996094 5.261719-45.113281 46.554687-45.113281 120.523437 0 167.078124 45.113281 46.558594 119.042969 48.886719 166.996094 5.261719zm0 0" fill="#9bc9ff"/><g fill="#1e81ce"><path d="m96.449219 48c0-26.507812-21.492188-48-48-48-26.511719 0-48 21.492188-48 48s21.488281 48 48 48c26.496093-.027344 47.972656-21.5 48-48zm-80 0c0-17.671875 14.324219-32 32-32 17.671875 0 32 14.328125 32 32s-14.328125 32-32 32c-17.675781 0-32-14.328125-32-32zm0 0"/><path d="m332.902344 404.457031-33.949219-33.953125-6.714844-6.710937-4.589843-4.59375c-43.742188 43.734375-114.652344 43.734375-158.390626-.003907-43.734374-43.738281-43.734374-114.652343 0-158.390624 43.738282-43.738282 114.648438-43.738282 158.390626-.003907l11.3125-11.3125 33.949218-33.953125 11.3125-11.3125c-74.960937-74.882812-196.433594-74.839844-271.34375.097656s-74.910156 196.40625 0 271.34375 196.382813 74.980469 271.34375.097657l-5.65625-5.65625zm-248.910156 0c-66.085938-66.601562-68.308594-173.332031-5.054688-242.625s169.746094-76.785156 242.078125-17.03125l-34.160156 34.160157c-52.539063-40.816407-127.59375-34.550782-172.636719 14.410156-45.046875 48.964844-45.046875 124.277344 0 173.242187 45.042969 48.960938 120.097656 55.226563 172.636719 14.410157l34.160156 34.160156c-69.9375 58.121094-172.621094 53.472656-237.023437-10.726563zm0 0"/></g></svg>