<svg width="50" height="50" viewBox="0 0 50 50" fill="none" xmlns="http://www.w3.org/2000/svg">
<path d="M37.5 21.875C35.7791 21.872 34.0906 22.3436 32.6203 23.2379C31.15 24.1322 29.9547 25.4145 29.1658 26.944C28.3769 28.4735 28.025 30.1908 28.1488 31.9073C28.2725 33.6238 28.8671 35.2729 29.8672 36.6734L21.875 44.6656L24.0844 46.875L32.0766 38.8828C33.2787 39.7373 34.6655 40.2959 36.1242 40.5133C37.583 40.7306 39.0724 40.6006 40.4714 40.1338C41.8705 39.6669 43.1395 38.8764 44.1754 37.8266C45.2112 36.7767 45.9847 35.4972 46.4327 34.0921C46.8808 32.6869 46.9909 31.1959 46.754 29.7402C46.517 28.2845 45.9399 26.9052 45.0694 25.7147C44.1989 24.5241 43.0597 23.5559 41.7444 22.8887C40.4291 22.2215 38.9748 21.8741 37.5 21.875ZM37.5 37.5C36.2639 37.5 35.0555 37.1334 34.0277 36.4467C32.9999 35.7599 32.1988 34.7838 31.7258 33.6418C31.2527 32.4997 31.1289 31.2431 31.3701 30.0307C31.6112 28.8183 32.2065 27.7046 33.0806 26.8306C33.9547 25.9565 35.0683 25.3612 36.2807 25.1201C37.4931 24.8789 38.7497 25.0027 39.8918 25.4757C41.0338 25.9488 42.0099 26.7499 42.6967 27.7777C43.3834 28.8055 43.75 30.0139 43.75 31.25C43.7479 32.907 43.0888 34.4955 41.9171 35.6671C40.7455 36.8388 39.157 37.4979 37.5 37.5Z" fill="white" fill-opacity="0.7"/>
<path d="M26.5625 18.75C27.4896 18.75 28.3959 18.4751 29.1667 17.96C29.9376 17.4449 30.5384 16.7129 30.8932 15.8563C31.248 14.9998 31.3408 14.0573 31.1599 13.148C30.9791 12.2387 30.5326 11.4035 29.8771 10.7479C29.2215 10.0924 28.3863 9.64594 27.477 9.46507C26.5677 9.2842 25.6252 9.37703 24.7687 9.73182C23.9121 10.0866 23.1801 10.6874 22.665 11.4583C22.1499 12.2291 21.875 13.1354 21.875 14.0625C21.8762 15.3053 22.3705 16.4969 23.2493 17.3757C24.1281 18.2545 25.3197 18.7488 26.5625 18.75ZM26.5625 12.5C26.8715 12.5 27.1736 12.5916 27.4306 12.7633C27.6875 12.935 27.8878 13.179 28.0061 13.4646C28.1243 13.7501 28.1553 14.0642 28.095 14.3673C28.0347 14.6704 27.8859 14.9488 27.6674 15.1674C27.4488 15.3859 27.1704 15.5347 26.8673 15.595C26.5642 15.6553 26.2501 15.6243 25.9646 15.5061C25.679 15.3878 25.435 15.1875 25.2633 14.9306C25.0916 14.6736 25 14.3715 25 14.0625C25 13.6481 25.1646 13.2507 25.4576 12.9576C25.7507 12.6646 26.1481 12.5 26.5625 12.5Z" fill="white" fill-opacity="0.7"/>
<path d="M18.75 37.5H6.25V28.1203L14.0625 20.3125L22.7906 29.0406L25 26.825L16.2719 18.0984C15.6859 17.5126 14.8911 17.1835 14.0625 17.1835C13.2339 17.1835 12.4391 17.5126 11.8531 18.0984L6.25 23.7V6.25H37.5V15.625H40.625V6.25C40.6242 5.42145 40.2947 4.62708 39.7088 4.0412C39.1229 3.45533 38.3285 3.12583 37.5 3.125H6.25C5.42145 3.12583 4.62708 3.45533 4.0412 4.0412C3.45533 4.62708 3.12583 5.42145 3.125 6.25V37.5C3.12583 38.3285 3.45533 39.1229 4.0412 39.7088C4.62708 40.2947 5.42145 40.6242 6.25 40.625H18.75V37.5Z" fill="white" fill-opacity="0.7"/>
</svg>
